<?xml version="1.0" encoding="utf-8"?>
<!-- Generator: Adobe Illustrator 26.2.1, SVG Export Plug-In . SVG Version: 6.00 Build 0)  -->
<svg version="1.1" id="Layer_1" xmlns="http://www.w3.org/2000/svg" xmlns:xlink="http://www.w3.org/1999/xlink" x="0px" y="0px"
	 viewBox="0 0 378 162" style="enable-background:new 0 0 378 162;" xml:space="preserve">
<style type="text/css">
	.st0{fill:#603813;}
	.st1{fill:#B3B3B3;}
</style>
<g>
	<path d="M18.2,153.3h-0.6c-0.4,0.1-1.3,0-2.5-0.2c-2.2-0.3-3.9-1-5.2-2c-0.4-0.3-0.8-0.8-1.3-1.4c-0.5-0.6-0.7-1-0.7-1.2
		s0-0.5,0-0.8c0-0.3,0-0.7-0.1-1v-0.5c-0.1-0.3-0.1-0.7,0.1-1.4c0.2-0.7,0.2-1.2,0.1-1.6c-0.1-0.6-0.1-1.2-0.2-1.8
		c-0.1-0.2-0.1-0.6,0.2-1.4c0.3-5.8,0.5-8.9,0.5-9.5l0.3-1.9c-0.2-1.3-0.2-2.4,0.1-3.3v-1.4c0-0.6,0.1-2.3,0.5-5.2
		c-0.2-0.5-0.7-1.2-1.7-2c-0.2-0.2-0.4-0.5-0.6-1c-0.2-0.4-0.1-1.2,0.3-2.1c0.3-0.3,1-0.9,2.2-1.7c0.1-0.3,1.2-0.7,3.5-1.5l1.2-0.5
		c0.6-0.2,1.8-0.3,3.6-0.3c1,0.1,1.8,0.3,2.4,0.6c2.2,1.1,4.2,2.3,6,3.6c0.6,0.3,0.9,0.6,1.2,1c0.8,0.5,1.5,1.3,2.1,2.5
		c0.7,1.1,1,1.8,1.1,2.1c0.2,1.4,0,3-0.6,4.9c-0.3,1-1.7,3-4.2,6.1c0.4,0.1,1.2,0.5,2.2,1.1c0.1,0.2,0.6,0.5,1.3,0.9
		c0.1,0.1,0.2,0.3,0.4,0.4c0.1,0.2,0.3,0.3,0.4,0.4l0.5,0.3l0.6,1l1,0.8c0.4,0.4,0.8,0.9,1,1.4c0.6,0.6,1,1.1,1,1.5l0.1,1.2
		c0,0.5-0.7,2-1.9,4.6c-0.5,0.9-1.1,1.7-1.8,2.2l-1,1.2c-0.3,0.3-0.7,0.8-1.4,1.3c-0.7,0.5-1.3,1-1.8,1.5c-0.2,0.1-0.5,0.3-1,0.6
		c-0.4,0.3-1.1,0.7-2,1.1c-0.9,0.4-1.5,0.7-1.8,0.8C20.8,153,19.7,153.2,18.2,153.3z M15.4,141.9l0.1,1.5c0.2,0.4,0.2,0.9,0,1.7
		c-0.2,0.7-0.2,1.3-0.1,1.7c0,0.7,0,1.2,0.1,1.3c0.4,0,1-0.2,1.8-0.5c0.8-0.3,1.3-0.5,1.5-0.6c0.2,0,0.5-0.2,0.8-0.5
		c1.1-0.6,2.2-1.2,3.3-1.9l1.5-1.3c1.2-1.5,2.1-2.6,2.6-3.3l0.4-1.2c0.6-1.2,0-2.3-1.6-3.4c-0.3-0.5-1-0.9-2.1-1h-0.1
		c-1.5-0.4-2.4-0.6-2.6-0.5l-2.8,0.6c-0.5,0.3-1,0.4-1.4,0.4c-0.4,0-0.8-0.2-1.3-0.6l0.1,1.8c-0.3,0.8-0.4,1.6-0.3,2.4
		C15.4,139.2,15.5,140.4,15.4,141.9z M22.8,124.9l1-2.2c0.2-0.6,0.3-1.1,0.3-1.4c0-0.3,0-0.6,0-0.8c0-0.2,0-0.5-0.1-0.8
		c0-0.3-0.2-0.6-0.4-1c-0.2-0.3-0.5-0.5-0.7-0.6c-0.2-0.1-0.7-0.3-1.3-0.5l-1.4-0.1c-1.3-0.3-2.4-0.1-3.3,0.3c0,0.9-0.2,2.9-0.7,5.9
		l-0.4,4.4l-0.3,2.3c0.3,0,1.1-0.2,2.3-0.7l0.9-0.8c0.2,0,0.7-0.5,1.6-1.4c0.2-0.1,0.4-0.3,0.7-0.6l0.6-0.8c0.1,0,0.4-0.2,0.7-0.6
		L22.8,124.9z"/>
	<path d="M38.4,132.5c0-0.4,0-0.8-0.1-1.3v-0.4c0-0.3,0-0.6-0.1-1c0-0.4,0-0.8,0.1-1.2c0-0.9,0.1-1.4,0.3-1.7c0-0.2,0.3-0.7,0.9-1.5
		c0.2-0.2,0.5-0.4,1-0.8c0.7-0.2,1.2-0.3,1.4-0.4c0.2-0.2,0.7-0.1,1.7,0.2c0.4,0,1.1,0.2,2,0.4c0.3,0.1,0.7,0.4,1.2,1
		c-0.1,0.2-0.2,0.8-0.4,1.9c-0.2,1.1-0.3,2-0.2,2.7c0.3-0.2,0.7-0.7,1.3-1.3c0.6-0.7,1-1,1-1.1c1.1-0.5,2.2-0.9,3.3-1.1
		c1.5-0.1,2.5,0,3,0.3c0.4,0.1,0.7,0.3,0.9,0.6c0.4,0.3,0.7,0.9,1,1.8c0.3,0.8,0.2,1.4-0.1,1.6c-0.3,0.2-1.1,0.4-2.6,0.5
		c-0.1,0-0.4,0.2-0.9,0.5l-3.3,2.6c-0.7,0.3-1.2,0.6-1.4,0.9l-1.2,2.2c0,0.1-0.1,0.6-0.1,1.7c0,1,0,1.8,0,2.2c0,0.4,0,1.9,0,4.3v2.7
		c0,1.5,0,2.4-0.1,2.6c0,0.2-0.2,0.6-0.5,1.2c-0.1,0.2-0.5,0.3-1.2,0.3c-1.7,1.2-2.7,1.2-3.2-0.2l-0.8-0.5c-0.3-0.2-0.6-0.4-0.6-0.6
		c-0.3-0.5-0.5-0.7-0.5-0.8l-0.3-0.9l-0.4-0.8c-0.1,0-0.2-0.9-0.3-2.5c-0.1-1.6-0.1-2.6-0.1-2.9c0-0.4,0-0.8-0.1-1.2
		c0.3-0.3,0.4-0.8,0.4-1.5c0-0.7-0.1-1.3-0.2-1.7c-0.1-0.4-0.1-0.7,0-0.8c0.1-0.1,0.1-0.7-0.1-1.8c-0.1-0.2-0.2-0.5-0.1-1
		L38.4,132.5z"/>
	<path d="M79.9,133.6l0.1,1.2c0,0.1,0.1,1.5,0.4,4v0.8c0,1,0.2,2.6,0.5,4.6c0,0.9,0.4,2.5,1.3,4.7c0.2,0.1,0.4,0.4,0.4,0.9l-0.1,0.6
		c0.1,0.2,0,0.4-0.3,0.7c0,0.3-0.4,0.4-1.2,0.4c-0.8,0-1.3,0-1.5,0.1c-0.2,0.1-0.6,0-1-0.1c-0.2,0.1-0.7-0.1-1.5-0.5
		c-0.4-0.1-0.7-0.5-0.9-1.2l-0.5-1.2c0-0.8-0.2-1.4-0.6-2c0-0.2-0.1-0.6-0.3-1.2c-0.2-0.6-0.3-0.9-0.4-0.9c-0.4,1.7-1,3-1.6,4
		c0,0.2-0.1,0.5-0.4,0.8l-0.6,1.2c0,0.1-0.2,0.3-0.6,0.7c-0.3,0.6-0.8,0.8-1.7,0.8c-0.8,0-1.8-0.2-2.9-0.6c-0.3,0-0.9-0.2-1.8-0.6
		c-0.3,0-0.6,0-1.2-0.2c-0.5-0.2-0.8-0.3-0.9-0.3c-0.1-0.1-0.4-0.3-0.9-0.6l-1.1-1.2c0,0-0.1-0.2-0.2-0.6c-0.1-0.4-0.1-0.6-0.1-0.8
		c0-0.1,0-0.4,0-0.7c0-0.3,0-0.6,0.1-0.9c0-0.9,0.1-1.8,0.3-2.8c0-0.1-0.1-0.3-0.1-0.4s0.1-0.5,0.3-1c0-0.2-0.1-0.4-0.1-0.4l0.3-2.5
		c0-0.6,0-1,0.1-1.3v-1c0-0.2,0.1-0.4,0.1-0.7l0.3-3.1c0-0.5,0-0.8,0.1-0.9v-0.6c0.1-0.1,0.1-0.4,0.1-1l0.6-1.8l0.4-0.8
		c0-0.2,0.3-0.4,0.7-0.6c0.7-0.4,1.7-0.6,2.9-0.6c0.5,0.1,1.1,0.3,1.7,0.6c0.1,0,0.4,0,0.9,0.3c0.9,0.4,0.9,1.5,0.1,3.3
		c-0.2,1.2-0.3,1.7-0.3,1.8c-0.2,0.3-0.3,0.6-0.3,0.8c-0.3,1.4-0.4,2.1-0.4,2.2c0.2-0.2,0.1,0.1-0.2,0.8l-0.3,2.4
		c-0.3,1-0.4,2.2-0.4,3.4l-0.3,0.8c0,0.2,0,0.9-0.1,2c0.1,0.1,0.1,0.3,0.1,0.4l0.1,0.5c0,0.1,0,0.2,0.1,0.4c0.1,0.1,0.3,0.1,0.7,0.1
		c0.4,0,0.8-0.1,1.1-0.3c0.6-0.7,1-1.5,1.2-2.3c0.2-0.8,0.3-1.2,0.3-1.4c0.7-1.8,1.2-2.9,1.3-3.2c0.2-1.2,0.6-2.5,1.1-4
		c-0.1-0.2-0.1-0.6,0-1.3l0.8-3.4c0.4-0.6,0.6-1,0.6-1.2c0-0.1,0.3-0.7,0.8-1.8c0-0.2,0.1-0.5,0.4-1c0.3-0.5,0.8-0.9,1.6-1.3h0.2
		c0.9-0.1,1.7,0,2.4,0.4c0.1,0.2,0.1,0.5,0.1,0.9c0.1,0.4,0.2,1.2,0.3,2.3v0.6l-0.3,1.4C80.1,131.5,80.1,132.6,79.9,133.6z"/>
	<path d="M87.5,133.1c0-0.5,0-1.5,0.1-2.9L88,128l1.3-2.7l1-1.3c0-0.3,1.1-0.8,3.3-1.4h0.1c0.5,0,1.2,0,2.2,0.1c1,0.1,2,0.5,2.9,1.2
		c0.9,0.7,1.6,1.3,1.9,1.8c0.9,1.8,1.3,3.5,1.2,5c0,0.4-0.2,0.9-0.6,1.5c0,0.1-0.4,0.2-1,0.4c-0.6,0.2-1.1,0.2-1.5,0
		c-0.4-0.1-0.8-0.4-1.3-0.7c-0.5-0.3-0.7-0.9-0.7-1.6c-0.4-0.4-0.5-1-0.3-1.7c0.1-0.5,0-0.9-0.2-1.2l-0.8-0.3
		c-0.3,0.1-0.5,0.5-0.7,1.2c-0.2,0.7-0.4,1.5-0.4,2.5c0,1.8,0.4,3.4,1.3,4.9c0.3,0.5,0.8,1,1.5,1.7l1.2,1.4l1.7,1.5l1.2,1.7
		c0.3,0.3,0.7,0.9,1.2,2c0.5,1,0.8,1.9,0.8,2.7c0,0.8-0.2,1.8-0.7,3l-0.6,0.8c0,0.1-0.2,0.4-0.7,0.8c-1.3,1.3-2.7,2.1-4.2,2.4h-0.4
		c-1.4,0.2-2.7,0.1-4-0.1l-2-0.5c-0.2,0-0.4-0.1-0.7-0.2c-0.3-0.2-0.5-0.3-0.7-0.4c-1-0.6-1.6-1.2-1.8-1.5c-0.2-0.1-0.4-0.7-0.4-1.8
		c-0.3-0.6-0.2-1.5,0.2-2.6c0-0.6,0.1-1.1,0.2-1.5c0.8-0.9,1.9-1.2,3.1-0.6c0.4,0.2,0.6,0.5,0.6,1c0,0.1,0.1,0.6,0.2,1.3
		c0.1,0.7,0.4,1.4,0.7,2.1c0.3,0.6,0.8,1,1.4,1c0.6,0,1.2-0.2,1.9-0.7c0.7-1.3,1-2,1-2.2l0.1-0.9c0.1-0.6-0.1-1.3-0.6-2
		c-0.1-0.5-0.4-1-0.9-1.5l-1-1.4l-1-0.9c-0.2,0-0.7-0.4-1.6-1c0-0.1-0.3-0.4-0.7-0.9s-0.8-1.1-1.2-1.8c-0.4-0.7-0.9-1.3-1.5-1.9
		C88.3,134.3,88,133.8,87.5,133.1z"/>
	<path d="M128.1,147.4l-0.1,1.9c0,0.7,0.1,1.3,0.2,1.6c0.1,0.4,0.2,0.7,0.2,1c0,0.7-1.2,0.6-3.6-0.3c-0.1,0-0.3,0-0.6,0
		c-0.3-0.1-0.6-0.1-0.7-0.2c-0.1-0.1-0.2-0.2-0.4-0.3c-0.6-0.2-0.9-0.5-0.9-1.1c0-0.2-0.1-0.4-0.2-0.7c-0.1-0.3-0.1-0.6-0.1-1.1
		s0-1.2-0.1-2.1c-0.1-0.9-0.1-1.4-0.1-1.6c0.3-2,0.6-3.4,0.8-4.1c0.4-2.2,0.5-4.3,0.2-6.4c-0.3-2-1.1-3.1-2.4-3.2
		c-1,0-1.9,0.7-2.7,2c-1.3,2.6-2,7.1-2,13.6c0,1.1,0.1,2.1,0.4,3.1c0.3,1,0.4,1.8,0.3,2.5c-0.1,0.7-0.7,0.9-1.8,0.8
		c-1.1-0.1-1.9-0.3-2.2-0.5l-0.8-0.4c-0.5,0-0.8-0.2-1-0.7c-0.1-0.2-0.3-0.4-0.6-0.8l-1.2-1.5c-0.3-0.3-0.4-0.6-0.4-0.9V147
		l-0.1-0.4c-0.3-0.3-0.4-0.9-0.4-1.7c0.1-0.9,0.3-2.5,0.6-4.9c0.5-3.3,0.7-5.9,0.7-7.6c0-1.6,0-2.4,0-2.4l0.6-5.8v-2.4
		c0-2.7,0.3-5.4,1-8.1c0.2-0.5,0.4-0.8,0.5-0.9c0.1-0.1,0.2-0.3,0.2-0.5c0-0.7,0.3-1.2,0.7-1.7l-0.1,0.1c0.1-0.3,0.3-0.6,0.7-0.8
		c0.7-0.4,1.9-0.3,3.4,0.3c0.3,0.2,0.5,0.3,0.6,0.4c0.3,0.1,0.5,0.2,0.8,0.2c0.8,0.5,1.1,1,1,1.4c0,0.1-0.2,0.8-0.5,2
		c-0.2,0.9-0.3,1.5-0.3,1.7c-0.9,3.5-1.6,7.5-1.9,11.8c0.6-0.6,1.2-1,1.9-1.3c1.7-0.6,3-0.9,4-0.9c3.1,0.2,5.2,1.4,6.3,3.7
		c1.1,1.8,1.5,4.5,1.2,7.9C129.2,137.6,128.8,141.1,128.1,147.4z"/>
	<path d="M138.2,126.5c1.2-1.4,2.7-2.2,4.7-2.2c3.3-0.1,5.7,0.7,7.3,2.4c1.6,1.7,2.4,3.5,2.6,5.2c0.1,1.7-0.3,2.6-1.3,2.7
		c-1.4,0-2.3-0.1-2.7-0.6c-0.4,0-0.9-0.2-1.5-0.8c-0.3-0.1-0.6-0.6-1-1.5l-0.7-1.6c-0.3-0.8-0.8-1.2-1.3-1.3c-0.6,0.3-1,0.9-1,1.9
		c0.2,2,1.1,3.9,2.9,5.8c0.1,0.2,0.5,0.6,1,1.2c3.4,3.7,5.1,6.7,5.2,8.9c0,1.4-0.3,2.4-0.9,2.9c-1.8,2.2-4.2,3.3-7.2,3.4
		c-2.9,0.1-5.4-0.8-7.3-2.7c-0.5-0.5-0.8-1-0.8-1.5c-0.3-0.8-0.3-1.3-0.3-1.6c-0.1-1.2-0.1-2.1,0-2.7c0.3-1.4,1.3-2.1,3-2.1
		c0.6,0,1,0.4,1.2,1.2c0.6,2.2,1.1,3.6,1.6,4.3c0.5,0.7,1.3,1,2.4,1c1.4-0.1,2.1-0.9,2-2.4c-0.1-1.5-0.8-2.9-2.1-4.2
		c-0.4-0.5-0.8-0.9-1.2-1.2c-0.4-0.3-0.7-0.5-0.8-0.6c0-0.1-0.1-0.3-0.3-0.4c-0.9-0.7-1.9-1.8-3.2-3.4c-1.3-1.6-2-3-2.1-4.4
		C136.3,129.9,136.8,127.9,138.2,126.5z"/>
	<path d="M169.5,112.9c-0.1,1.1-0.2,1.8-0.2,2.3c0,0.5,0,0.9-0.1,1.3v1.7l-0.1,0.4v1.3c0,0.4,0,0.8-0.1,1.2l2.2-0.4
		c0.2,0,0.8-0.1,1.9-0.3c1.1-0.2,2-0.3,2.9-0.3c0.9,0,1.5,0.2,1.8,0.5c0.3,0.3,0.5,0.8,0.5,1.5c0.1,0.5-0.1,1-0.4,1.5l-0.3,0.4
		c-0.3,0.6-0.8,0.9-1.5,1.1l-2.2,0.3l-2.9,0.7l-1.7,0.6c0,1.1,0.1,2.2,0.2,3.5s0.2,2.2,0.2,2.7l0.2,2.4c0.6,3.8,1.3,7.6,2.2,11.5
		c0.3,0.4,0.5,1.3,0.8,2.6l0.5,1.3c0.2,1.4-0.7,2.2-2.7,2.2c-0.3,0-1.2-0.1-2.6-0.3c-0.4,0-0.9-0.4-1.7-1.2c0-0.1-0.2-0.4-0.7-0.8
		l-1.2-2.9c-0.1-0.1-0.2-0.5-0.3-1.2c-0.5-0.5-0.9-1.5-1.2-3.2c0-0.1,0-0.3-0.1-0.6v-0.9c-0.3-0.3-0.5-1.1-0.6-2.5
		c-0.1-1.4-0.3-2.6-0.4-3.8c0-1.7-0.1-3.3-0.4-4.8l-0.1-1.4v-0.6c0-0.4,0-0.6,0-0.6h-0.8c-0.6,0.1-1.2,0.1-1.6,0
		c-1.9,0-3.2-0.5-3.9-1.6c-0.5-1.2-0.5-1.9-0.1-2.2c0.5-0.3,1.6-0.7,3.5-1c0.8,0,1.9-0.3,3.1-0.8c0-1.1,0.1-1.7,0.2-1.8
		c0.1-1,0.3-1.6,0.4-1.9c0.1-0.3,0.2-0.6,0.3-0.9c0-1,0.4-2.5,1.1-4.5c0.3-1,0.5-1.6,0.7-2c0.6-0.8,1.7-1.1,3.5-0.8
		c0.7,0.1,1.3,0.4,1.6,0.8C169.6,111.3,169.6,111.8,169.5,112.9z"/>
	<path d="M181.1,146.9c0.8-5.5,1.2-8.4,1.2-8.6l0.3-1.8c0.1-0.1,0.2-1.1,0.2-2.9v-1.3l0.1-1.3c-0.1-0.9-0.2-1.6-0.2-2.1
		c-0.2-0.8-0.1-1.6,0.3-2.4c0.6-0.9,1.7-1.1,3.3-0.8c0.6,0.2,1,0.4,1.5,0.8c0.6,0.2,1,0.4,1.3,0.6c0.3,0.1,0.5,0.9,0.5,2.4
		c0.5-0.5,1.6-1.1,3.4-1.7c0.3,0,0.8-0.1,1.6-0.3c0.8-0.2,1.5-0.3,2-0.3s1,0.1,1.3,0.2c0.9,0.5,1.3,0.8,1.4,1
		c0.1,0.2,0.2,0.4,0.3,0.7c0.1,0.3,0.1,0.4,0.1,0.4c0.4,0.4,0.5,0.8,0.3,1.3c-0.4,0.6-1,0.9-1.8,1c-0.8,0-2.2,0.6-4.3,1.9l-1.9,1
		c-1.7,1.2-2.6,1.8-2.7,1.9c-0.7,9.2-1.2,14.2-1.4,15.2c-0.1,0.4-0.4,0.8-0.9,1.2c-0.5,0.4-1,0.3-1.7-0.2l-0.9-0.3
		c-0.7-0.3-1.4-0.8-1.9-1.5l-0.8-1l-0.4-1.1c0-0.3,0-0.5-0.1-0.8V146.9z"/>
	<path d="M207.2,123.8c0.4,0,0.6-0.1,0.8-0.2c0.2-0.1,0.6-0.2,1.1-0.4c0.5-0.2,1.8-0.2,3.8,0c1.1,0.2,2.3,0.8,3.7,1.7
		c1.4,0.7,2.5,1.6,3.4,2.8c1.2,3.2,1.9,5.9,2,8.2c0.1,3.6-0.3,6.5-1,8.9c-1.1,2.7-1.8,4.3-2.1,4.7c-0.1,0.6-0.4,1.3-1,2.2
		c-0.2,0-0.4,0-0.5,0.1c0,0-0.1,0.2-0.4,0.4c-0.2,0.2-0.6,0.4-1,0.4c-0.6,0.1-0.9,0.2-1,0.4c-0.1,0.1-0.3,0.2-0.7,0.2l-1.6,0.1H211
		c-1.2,0-2.1-0.1-2.7-0.4l-1.9-1.3l-0.6-0.8c-0.1,0-0.2-0.1-0.2-0.2c0-0.1-0.1-0.2-0.1-0.3c-0.4-0.3-0.6-0.6-0.6-1
		c-0.5-0.7-0.7-1.2-0.7-1.5c0-0.3-0.1-0.5-0.2-0.6c0-0.6-0.2-1.6-0.6-2.8l-0.1-0.9v-0.7c0-0.6-0.2-1.4-0.5-2.2
		c0.1-0.1,0.1-0.3,0-0.7c0-1,0-1.6,0.1-2l-0.2-0.8c0.1-0.3,0.2-0.5,0.2-0.7c0-0.2,0-0.5,0.2-1v-0.4l0.3-2.2c0-0.3,0-0.5,0.1-0.7
		v-0.4c0.1,0,0.1-0.2,0.2-0.6l0.3-0.5l0.1-0.5c0-0.1,0-0.3-0.1-0.4l0.3-1c0-0.1,0.1-0.3,0.4-0.8c0-0.2,0.1-0.5,0.4-1
		c0-0.2,0.1-0.5,0.3-0.8c0-0.4,0.2-0.9,0.7-1.5C206.4,124,206.8,123.8,207.2,123.8z M216.2,135.9l-0.3-1.7c0-0.1,0-0.3-0.1-0.4
		c-0.1-0.2-0.1-0.5-0.2-1c-0.3-0.3-0.6-0.4-0.7-0.6l-0.3-0.5l-0.2-0.6c-0.2-0.1-0.3-0.3-0.4-0.5s-0.1-0.4-0.3-0.6
		c-0.2-0.1-0.3-0.3-0.4-0.4c-0.1-0.1-0.2-0.2-0.3-0.3c-0.4-0.3-0.9-0.3-1.5-0.1c-0.6,0.2-1,0.5-1.2,0.9c-0.7,1.6-1.1,2.7-1.1,3.1
		c-0.6,2-0.8,3.5-0.5,4.3c-0.1,1.4,0.1,3.2,0.5,5.6v0.7c0.4,0.5,0.7,1.2,1.1,2c0.4,0.6,0.7,0.9,0.9,1.2c0.1,0.2,0.2,0.4,0.3,0.4
		c0.4,0.3,0.7,0.5,0.8,0.6c0.3-0.2,0.6-0.3,0.7-0.4v-0.4c0.2-0.2,0.4-0.3,0.6-0.4c0,0,0.1-0.1,0.4-0.4l0.3-0.3c0.6-1.4,1-2.1,1-2.1
		s0-0.2-0.1-0.4c-0.2-0.4-0.1-0.7,0.3-0.9l0.8-2.2v-0.4c0.1-0.3,0-0.4-0.1-0.6v-0.4c0.1-0.2,0.1-0.3,0.1-0.5
		c0.2-0.7,0.2-1.1,0.2-1.2c0-0.1,0-0.3,0-0.5c0-0.2,0.1-0.3,0.2-0.4C217,136.3,216.8,136.1,216.2,135.9z"/>
	<path d="M228.7,127.6l-0.2-0.8c0,0,0-0.2,0-0.5c0-0.3,0-0.7-0.1-1.2c0-1.1,0-1.9-0.1-2.4c-0.1-0.2-0.2-1-0.2-2.5
		c-0.1-1.5-0.1-2.9,0.1-4.3c0-0.4,0.2-1.6,0.7-3.4c0.5-0.9,0.7-1.5,0.7-1.6c0.2-0.4,0.6-0.9,1.3-1.5l1.3-0.6
		c0.6-0.3,1.7-0.2,3.3,0.2l1.4,0.3c0,0.7-0.1,1.6-0.3,2.7c0,1.2-0.2,2.9-0.5,5c-0.6,4.3-0.9,9.1-0.9,14.1l0.3,1
		c1.2-0.9,2.4-1.9,3.4-2.9c1-1,1.7-1.6,1.9-1.7c0,0,0.5-0.4,1.5-1.2c1.1-0.9,1.7-1.4,1.9-1.7c0.8-1.1,1.8-1.9,2.9-2.4
		c0.8,0,1.4,0.2,2,0.6c0.7,0.6,1,1.1,1,1.5c0,0.4-0.1,0.8-0.2,1c-0.1,0.2-0.3,0.5-0.5,0.9c-0.3,0.3-0.5,0.7-0.7,1.2
		c-0.6,1-1.7,2.3-3.5,4.1c-1.2,1.3-2.1,2.2-2.7,2.7c-0.4,0.4-1.3,1.1-2.8,2.1c0,0.1,0.1,0.2,0.3,0.5c0.1,0.2,0.3,0.5,0.5,0.9
		c1.8,2,3.3,3.3,4.6,4c0.5,0.5,1,0.8,1.6,1c0,0,0.2,0.2,0.7,0.5l0.4,0.1c0.9,0.5,1.6,0.7,1.9,0.7c1.4,0.3,2,0.7,2,1.4
		c0,0.7-0.3,1.2-1,1.5c0,0.1-0.6,0.5-1.9,1.3c-0.2,0-0.5,0.1-1.1,0.4c-1.6,0.5-3.4,0.3-5.4-0.6c-1.2-0.5-2.1-1.3-2.9-2.4l-1.5-1.2
		c0-0.1-0.8-0.9-2.2-2.4l0.3,2l0.3,1.9c0,1.4,0.1,2.5,0.3,3.3c0.2,0.8,0,1.4-0.5,1.7c-0.5,0.3-1.4,0.5-2.6,0.6s-2.2-0.3-2.8-0.9
		c-0.2-0.1-0.3-0.7-0.5-1.6s-0.3-1.6-0.4-2c-0.9-2.6-1.2-4.8-1-6.7l-0.1-1.9c0-0.2,0.1-0.7,0.1-1.5
		C229.2,134.3,229.2,131.3,228.7,127.6z"/>
	<path d="M272,131.8v0.7c-0.1,2.6-0.9,4.9-2.3,7c-0.2,0.3-0.5,0.6-0.9,1l-1.4,1.4c-0.3,0.3-0.7,0.6-1.2,0.8l-1.4,0.4
		c-0.1-0.1-0.5-0.2-1.1-0.3c-0.5,0.2-0.9,0.1-1.2-0.1c0,0-0.3-0.1-0.7-0.3c-0.4-0.2-0.9-0.3-1.5-0.3c0.1,0.7,0.1,1.4,0.1,2.2
		l0.8,2.9c0.5,0.9,0.9,1.5,1.4,1.7c0.4,0.2,0.9,0.4,1.5,0.4c0.5,0,0.9,0,1.2-0.2c0.3-0.1,0.8-0.3,1.4-0.6l1.3-0.6
		c0.9-0.5,1.7-0.4,2.3,0.4c0.3,0.4,0.5,0.9,0.4,1.5c0,0.6-0.3,1.2-0.8,1.7c-0.3,0.6-0.9,1.2-2,1.7c0,0-0.2,0.1-0.6,0.3
		c-1.9,0.9-4,1.1-6.4,0.4l-1.2-0.6c-0.1,0-0.3-0.1-0.4-0.2c-0.5-0.1-1.1-0.4-1.7-1c-0.6-0.5-1-0.9-1.2-1.3c-0.2-0.3-0.4-0.6-0.5-0.7
		c-0.1-0.1-0.2-0.4-0.4-0.8c-0.7-1.4-1.3-2.7-1.6-3.9l-0.4-1.9c0.1-0.2,0.1-0.7,0.1-1.5v-1c-0.4-0.7-0.1-2.2,0.7-4.7
		c0.7-3.2,1.2-5.1,1.7-5.7l0.8-1.7c0,0,0.3-0.4,0.8-1c0.1-0.2,0.6-0.6,1.5-1.3c0.2-0.3,0.4-0.4,0.8-0.4c0.2-0.2,0.4-0.3,0.8-0.4
		c0.3-0.3,0.9-0.5,1.5-0.6c0.6-0.2,1.6-0.3,2.9-0.2c3,0.3,5.1,1.5,6.2,3.8l0.4,1.4c0,0.2,0.1,0.5,0.2,0.8
		C272,131.3,272,131.5,272,131.8z M266.3,130.9v-0.7c0-0.5,0-0.7-0.1-0.7l-0.4-0.1c-0.3,0-0.5,0-0.7-0.1c-0.3,0.1-0.5,0.2-0.7,0.4
		c-0.6,0.3-0.9,0.7-1.2,1.2l-1.4,2.8c-0.6,1.3-1,3-1.1,5.1c1.1,0.5,1.9,0.4,2.4-0.1c0.3-0.3,0.6-0.6,0.8-0.9
		c0.1-0.3,0.3-0.6,0.5-0.9c0.3-0.3,0.5-1,0.8-2.1C266,133.8,266.3,132.5,266.3,130.9z"/>
</g>
<g>
	<path d="M280.8,148.5c2.1,0,3.6,0.4,4.5,1.3c0,0.5-0.4,1.6-1.1,3.3c-0.1,0.5-0.3,1-0.6,1.3L283,155c-0.2,0.1-0.3,0.1-0.5,0.1
		c-1.2,0.3-2,0.1-2.7-0.7c-0.1-0.2-0.3-0.3-0.5-0.4c-0.2-0.1-0.3-0.4-0.4-0.9c-0.3-0.4-0.4-0.7-0.4-1c-0.1-2,0.7-3.2,2.2-3.7H280.8z
		"/>
</g>
<g>
	<g>
		<g>
			<path class="st0" d="M307.1,131.8c-1-0.1-3.1-0.3-5.2-1.6c-2.2-1.2-3.4-2.9-4-3.7c-1.5,1.4-6.6,6.3-7,14c-0.2,4.2-1,5.6-1.3,6.2
				C289.6,146.6,304.8,145.2,307.1,131.8z"/>
			<path d="M286.6,148.7l1.7-2.9c0.2-0.4,0.9-1.6,1.1-5.5c0.3-5.5,2.9-10.7,7.5-15l1.3-1.2l1,1.5c0.6,0.9,1.7,2.3,3.5,3.3
				c1.4,0.8,3,1.3,4.6,1.4l1.7,0.1l-0.3,1.7c-2.4,13.9-17.5,15.9-18.8,16L286.6,148.7z M297.8,128.7c-3.3,3.5-5.1,7.5-5.4,11.8
				c-0.1,1.8-0.3,3.1-0.5,4.1c3.9-0.9,11.3-3.7,13.5-11.6c-1.5-0.3-2.9-0.8-4.2-1.6C299.9,130.8,298.7,129.8,297.8,128.7z"/>
		</g>
	</g>
	<g>
		<path class="st1" d="M307.1,131.8l9.9-17.1c0,0-6.4-0.1-9.2-5.3l-9.9,17.1C297.9,126.5,300.9,131.4,307.1,131.8z"/>
		<path d="M308,133.3l-0.9-0.1c-7-0.4-10.3-5.8-10.4-6.1l-0.4-0.8l11.7-20.2l1.3,2.4c2.4,4.4,7.9,4.5,7.9,4.5l2.5,0.1L308,133.3z
			 M299.7,126.4c0.9,1.1,3.1,3.3,6.6,3.8l8.3-14.4c-1.9-0.4-4.6-1.4-6.7-3.7L299.7,126.4z"/>
	</g>
	<g>
		<path class="st1" d="M317,114.7l3.3-5.7c0,0-6.2,0.1-9.2-5.3l-3.3,5.7C307.8,109.3,310.3,114.4,317,114.7z"/>
		<path d="M317.9,116.2l-0.9,0c-7.5-0.3-10.4-5.9-10.5-6.2l-0.4-0.7l5-8.6l1.3,2.3c2.6,4.5,7.7,4.6,7.9,4.6h2.6L317.9,116.2z
			 M309.6,109.3c0.8,1.1,2.8,3.3,6.6,3.8l1.7-2.9c-1.9-0.4-4.6-1.4-6.7-3.8L309.6,109.3z"/>
	</g>
	<g>
		<path d="M320.3,109l53.1-97.8c1.4-2.8-2.6-5-4.3-2.5l-58.1,94.9C311.1,103.7,313.6,108.7,320.3,109z"/>
		<path d="M321.2,110.5l-0.9,0c-7.5-0.3-10.4-5.9-10.5-6.2l-0.4-0.7l0.4-0.7L367.9,8c1.4-2.1,3.7-2.2,5.3-1.3c1.6,0.9,2.7,3,1.6,5.2
			L321.2,110.5z M312.8,103.7c0.8,1.1,2.8,3.3,6.6,3.8l52.7-96.9c0.3-0.7-0.2-1.1-0.4-1.2c-0.2-0.1-0.8-0.4-1.3,0.3L312.8,103.7z"/>
	</g>
	<polygon points="291.2,138.2 293.9,136.6 294.2,139.9 297.9,137.3 297.8,142.1 299.8,141.1 299.7,143.2 299,143.7 295,145.6 
		291.6,146.5 290.2,146.5 290.1,145.3 291,140.7 	"/>
</g>
</svg>
