<?xml version="1.0" encoding="utf-8"?>
<!-- Generator: Adobe Illustrator 26.2.1, SVG Export Plug-In . SVG Version: 6.00 Build 0)  -->
<svg version="1.1" id="Layer_1" xmlns="http://www.w3.org/2000/svg" xmlns:xlink="http://www.w3.org/1999/xlink" x="0px" y="0px"
	 viewBox="0 0 288 288" style="enable-background:new 0 0 288 288;" xml:space="preserve">
<style type="text/css">
	.st0{fill:#D86438;}
	.st1{fill:#35ACD7;}
</style>
<path class="st0" d="M154.8,72.8c5.2,0,9.2-4.2,11.9-12.5c1-2.9,2.1-5.5,3.4-7.7c0-0.1,0.1-0.1,0.1-0.2c2.9-4.9,9-6.8,14.3-4.8
	c4.1,1.5,7.5,3.6,10.2,6.4c0,0,0.6,0.5,1.4,1.4c2.1,2.3,3.5,5.1,4.3,8.2c0.1,0.3,0.1,0.6,0.2,0.9c1.4,6.4,2.2,17.4,2.3,32.9v47.4
	l-0.3,40.1c0,4.2-0.1,4.6-0.2,9.2c5.2,0.8,17.5,3.3,27.2,8.8l0-51.8l0,0.1V62.5c0-1.4-0.1-2.8-0.3-4.1l-0.3-1.7
	C226.5,44.8,215.9,36,203.2,36l-14.1,0.1c-0.1,0-0.1,0-0.2,0c-0.1,0-0.1,0-0.2,0l-0.6,0l0,0c-9.8,0.1-19.2,2.6-28.2,7.4
	c-9.2,4.9-13.9,11.1-13.9,18.5c0,2.9,0.9,5.4,2.6,7.6C150.5,71.7,152.5,72.8,154.8,72.8z"/>
<path class="st1" d="M231.3,210.2c3.5,2.2,6.8,4.9,9.6,8c0.9,1,1.8,2,2.6,3c5.4,6.9,8.2,12.8,8.2,17.8c0,3.1-1.1,5.7-3.4,7.7
	c-2.3,2-4.7,3-7.3,3c-4,0-6.9-1.2-8.5-3.5c-1.7-2.3-2.7-6.3-3.3-12c-0.9-8.3-2.6-14.2-5.2-17.9c-1.5-2.1-3.5-3.6-6.1-4.5
	c-2.7-0.9-5.5-1-8.3-0.4c-6.5,1.4-15.1,4.6-22.4,9.8c-17.4,12.6-30.6,20.9-39.6,24.8c-9,3.9-17.6,5.8-25.7,5.8c0,0-0.1,0-0.1,0
	c0,0,0,0-0.1,0c0,0,0,0-0.1,0c0,0,0,0,0,0c-19.7,0-35-4.5-46-9.5c-17.5-8-31.2-22.7-36.6-41.1c-1.8-6.3-2.8-12.9-2.8-19.9
	c0-19.7,6.3-37,19-51.8c12.7-14.8,28.1-22.2,46.3-22.2c11.7,0,23,2.9,33.8,8.6c10.8,5.8,16.2,13,16.2,21.6c0,3.3-1,6.3-3.1,8.8
	c-2,2.5-4.4,3.8-7.1,3.8c-6,0-10.7-4.8-13.9-14.5c-5-14.9-13.6-22.3-26-22.3c-12.3,0-21.6,5.3-28,15.9c-6.4,10.6-9.6,24.6-9.6,41.8
	c0,13.9,2.2,26,6.4,36.3c0.9,2.2,2,4.4,3.2,6.4c2.2,3.6,4.9,6.9,7.9,9.9c2.4,2.3,4.6,4.2,6.6,5.5c4.3,2.8,9.6,4.2,15.9,4.2
	c8.5,0,20.9-5.1,37.3-15.2c12.7-8,21.9-13.1,27.6-15.5c5.7-2.3,12.2-3.5,19.6-3.5l0,0c0,0,0,0,0.1,0l-0.1,0c0,0,0.1,0,0.2,0
	c0,0,0.1,0,0.1,0c2,0,4.6,0.1,7.9,0.3c1.2,0.1,2.3,0.2,3.5,0.4l0,0C200,200.2,218.5,202.3,231.3,210.2z"/>
</svg>
